<?xml version="1.0" standalone="no"?>
<!DOCTYPE svg PUBLIC "-//W3C//DTD SVG 20010904//EN"
 "http://www.w3.org/TR/2001/REC-SVG-20010904/DTD/svg10.dtd">
<svg version="1.0" xmlns="http://www.w3.org/2000/svg"
 width="576.000000pt" height="576.000000pt" viewBox="0 0 576.000000 576.000000"
 preserveAspectRatio="xMidYMid meet">
<metadata>
Created by potrace 1.11, written by Peter Selinger 2001-2013
</metadata>
<g transform="translate(0.000000,576.000000) scale(0.100000,-0.100000)"
fill="#000000" stroke="none">
<path d="M1901 5339 c-243 -48 -513 -215 -726 -451 -269 -298 -437 -778 -452
-1296 -6 -175 -7 -183 -27 -187 -12 -2 -163 -20 -336 -40 -280 -32 -317 -38
-337 -57 -24 -23 -30 -66 -13 -98 21 -39 52 -39 385 0 176 21 321 37 323 35 1
-1 9 -62 18 -136 50 -437 189 -795 376 -975 160 -154 337 -173 571 -61 231
111 477 344 680 644 116 173 259 502 306 709 l12 51 122 12 c67 7 134 15 150
18 l27 6 0 -64 c0 -193 33 -466 80 -664 118 -497 345 -783 621 -785 58 0 185
32 258 66 103 47 253 156 369 268 356 345 564 740 667 1267 14 73 28 135 30
138 3 2 132 19 288 37 273 32 283 34 305 59 28 33 28 65 1 99 -26 33 -45 33
-319 1 -116 -14 -222 -25 -234 -25 l-24 0 6 168 c11 365 -46 672 -171 917 -42
82 -67 115 -137 185 -126 127 -231 170 -410 170 -156 0 -326 -52 -494 -151
-476 -281 -747 -764 -821 -1466 -4 -35 -10 -63 -13 -63 -4 0 -61 -7 -127 -15
-65 -8 -123 -15 -128 -15 -6 0 -7 17 -3 38 34 196 46 559 25 750 -55 512 -265
848 -567 911 -61 13 -217 13 -281 0z m224 -236 c76 -24 128 -58 194 -128 75
-81 120 -162 165 -296 62 -184 79 -309 80 -579 0 -180 -4 -263 -18 -355 -10
-66 -20 -122 -23 -125 -4 -5 -1581 -189 -1625 -190 l-28 0 0 113 c0 214 39
461 107 672 75 233 176 407 330 566 263 271 579 396 818 322z m2276 -29 c187
-55 322 -228 399 -514 42 -158 70 -452 56 -601 l-7 -74 -812 -94 c-447 -51
-825 -95 -841 -99 l-29 -5 7 74 c18 192 89 453 170 625 152 320 434 581 727
673 82 26 97 28 195 30 48 0 102 -5 135 -15z m429 -1371 c0 -32 -28 -179 -54
-279 -95 -378 -268 -687 -526 -943 -138 -137 -300 -241 -423 -272 -73 -18
-182 -7 -243 24 -196 100 -354 442 -409 888 -15 128 -25 393 -14 404 6 5 1581
192 1642 194 19 1 27 -4 27 -16z m-2362 -325 c-90 -322 -259 -614 -488 -846
-259 -260 -499 -356 -677 -271 -64 31 -160 128 -211 214 -87 148 -163 386
-197 616 -22 152 -21 179 8 179 12 1 362 41 777 89 415 49 767 89 782 90 l26
1 -20 -72z"/>
<path d="M5615 2188 c-11 -6 -35 -24 -52 -41 -28 -26 -33 -38 -33 -77 0 -212
-224 -441 -645 -661 -670 -349 -1787 -628 -2995 -748 -297 -30 -376 -33 -491
-22 -337 33 -616 151 -837 356 -176 163 -302 399 -328 615 -6 49 -12 61 -57
107 -28 29 -64 57 -80 64 -27 11 -32 10 -48 -10 -23 -28 -24 -73 -4 -201 91
-599 582 -1062 1218 -1149 168 -23 435 -8 892 50 2031 257 3558 927 3602 1581
5 67 3 81 -13 99 -40 44 -90 59 -129 37z"/>
</g>
</svg>
